<svg width="800" height="600" xmlns="http://www.w3.org/2000/svg">
 <g id="Layer_1">
  <title>Layer 1</title>
  <path stroke="#ffffff" id="svg_27" d="m382.8853,375.31021c-4.75571,-0.80274 -9.173,-5.16895 -8.27584,-10.26578c0.45408,-5.59528 4.9016,-10.09856 9.37651,-13.06559c5.95551,-4.05442 14.09834,-5.56054 20.66143,-2.0637c0.38455,-28.20372 0.16538,-56.41452 0.22364,-84.62144c4.13871,-1.00212 2.80054,4.41654 3.74051,6.92243c0.89693,7.36866 5.83925,13.15059 10.75876,18.31357c6.10345,6.48963 12.58444,13.37059 14.56829,22.36156c2.1663,10.43147 -1.29689,21.10297 -5.79119,30.45157c-0.32545,2.99612 -5.82124,7.33084 -3.20285,1.91667c4.40891,-9.26187 8.05123,-19.92846 5.04187,-30.18454c-2.86578,-10.23363 -11.79822,-18.78024 -22.43167,-20.31271c-0.06872,21.60908 0.16734,43.22224 -0.25201,64.82786c-1.04537,6.36425 -6.57316,11.08648 -12.11653,13.78291c-3.82244,1.66428 -8.13658,2.67123 -12.30092,1.93721l0,-0.00001l0,-0.00001z" fill="#ffffff"/>
  <path stroke="#ffffff" id="svg_33" d="m746.34785,375.31021c-4.75571,-0.80274 -9.17299,-5.16895 -8.27583,-10.26578c0.45408,-5.59528 4.9016,-10.09856 9.3765,-13.06559c5.95551,-4.05441 14.09834,-5.56054 20.66143,-2.06369c0.38455,-28.20373 0.16538,-56.41452 0.22364,-84.62144c4.13872,-1.00212 2.80054,4.41654 3.74051,6.92243c0.89693,7.36866 5.83925,13.15059 10.75876,18.31357c6.10345,6.48964 12.58444,13.3706 14.5683,22.36156c2.16629,10.43147 -1.2969,21.10297 -5.79119,30.45157c-0.32545,2.99612 -5.82124,7.33084 -3.20285,1.91666c4.4089,-9.26187 8.05122,-19.92846 5.04187,-30.18453c-2.86578,-10.23363 -11.79822,-18.78025 -22.43167,-20.31272c-0.06872,21.60908 0.16734,43.22224 -0.25201,64.82786c-1.04538,6.36425 -6.57316,11.08648 -12.11653,13.78291c-3.82244,1.66427 -8.13658,2.67123 -12.30093,1.9372l0,-0.00001z" fill="#ffffff"/>
  <path stroke="#ffffff" id="svg_34" d="m10.47032,375.31021c-4.75571,-0.80274 -9.17299,-5.16895 -8.27583,-10.26578c0.45408,-5.59528 4.9016,-10.09856 9.3765,-13.06559c5.95551,-4.05441 14.09834,-5.56054 20.66143,-2.06369c0.38455,-28.20373 0.16538,-56.41452 0.22364,-84.62144c4.13872,-1.00212 2.80054,4.41654 3.74051,6.92243c0.89693,7.36866 5.83925,13.15059 10.75876,18.31357c6.10345,6.48964 12.58444,13.3706 14.5683,22.36156c2.16629,10.43147 -1.2969,21.10297 -5.79119,30.45157c-0.32545,2.99612 -5.82124,7.33084 -3.20285,1.91666c4.4089,-9.26187 8.05122,-19.92846 5.04187,-30.18453c-2.86578,-10.23363 -11.79822,-18.78025 -22.43167,-20.31272c-0.06872,21.60908 0.16734,43.22224 -0.25201,64.82786c-1.04538,6.36425 -6.57316,11.08648 -12.11653,13.78291c-3.82244,1.66427 -8.13658,2.67123 -12.30093,1.9372l0,-0.00001z" fill="#ffffff"/>
  <path stroke="#ffffff" id="svg_35" d="m382.8853,112.02911c-4.75571,-0.80274 -9.17299,-5.16895 -8.27583,-10.26578c0.45408,-5.59528 4.9016,-10.09856 9.3765,-13.06559c5.95551,-4.05441 14.09834,-5.56054 20.66143,-2.06369c0.38455,-28.20373 0.16538,-56.41452 0.22364,-84.62144c4.13872,-1.00212 2.80054,4.41654 3.74051,6.92243c0.89693,7.36866 5.83925,13.15059 10.75876,18.31357c6.10345,6.48964 12.58444,13.3706 14.5683,22.36156c2.16629,10.43147 -1.2969,21.10297 -5.79119,30.45157c-0.32545,2.99612 -5.82124,7.33084 -3.20285,1.91666c4.4089,-9.26187 8.05122,-19.92846 5.04187,-30.18453c-2.86578,-10.23363 -11.79822,-18.78025 -22.43167,-20.31272c-0.06872,21.60908 0.16734,43.22224 -0.25201,64.82786c-1.04538,6.36425 -6.57316,11.08648 -12.11653,13.78291c-3.82244,1.66427 -8.13658,2.67123 -12.30093,1.9372l0,-0.00001z" fill="#ffffff"/>
  <path stroke="#ffffff" id="svg_36" d="m382.8853,597.13867c-4.75571,-0.80274 -9.17299,-5.16895 -8.27583,-10.26578c0.45408,-5.59528 4.9016,-10.09856 9.3765,-13.06559c5.95551,-4.05441 14.09834,-5.56054 20.66143,-2.06369c0.38455,-28.20373 0.16538,-56.41452 0.22364,-84.62144c4.13872,-1.00212 2.80054,4.41654 3.74051,6.92243c0.89693,7.36866 5.83925,13.15059 10.75876,18.31357c6.10345,6.48964 12.58444,13.3706 14.5683,22.36156c2.16629,10.43147 -1.2969,21.10297 -5.79119,30.45157c-0.32545,2.99612 -5.82124,7.33084 -3.20285,1.91666c4.4089,-9.26187 8.05122,-19.92846 5.04187,-30.18453c-2.86578,-10.23363 -11.79822,-18.78025 -22.43167,-20.31272c-0.06872,21.60908 0.16734,43.22224 -0.25201,64.82786c-1.04538,6.36425 -6.57316,11.08648 -12.11653,13.78291c-3.82244,1.66427 -8.13658,2.67123 -12.30093,1.9372l0,-0.00001z" fill="#ffffff"/>
  <path stroke="#ffffff" id="svg_37" d="m746.34785,112.13867c-4.75571,-0.80274 -9.17299,-5.16895 -8.27583,-10.26578c0.45408,-5.59528 4.9016,-10.09856 9.3765,-13.06559c5.95551,-4.05441 14.09834,-5.56054 20.66143,-2.06369c0.38455,-28.20373 0.16538,-56.41452 0.22364,-84.62144c4.13872,-1.00212 2.80054,4.41654 3.74051,6.92243c0.89693,7.36866 5.83925,13.15059 10.75876,18.31357c6.10345,6.48964 12.58444,13.3706 14.5683,22.36156c2.16629,10.43147 -1.2969,21.10297 -5.79119,30.45157c-0.32545,2.99612 -5.82124,7.33084 -3.20285,1.91666c4.4089,-9.26187 8.05122,-19.92846 5.04187,-30.18453c-2.86578,-10.23363 -11.79822,-18.78025 -22.43167,-20.31272c-0.06872,21.60908 0.16734,43.22224 -0.25201,64.82786c-1.04538,6.36425 -6.57316,11.08648 -12.11653,13.78291c-3.82244,1.66427 -8.13658,2.67123 -12.30093,1.9372l0,-0.00001z" fill="#ffffff"/>
  <path stroke="#ffffff" id="svg_38" d="m746.34785,597.13867c-4.75571,-0.80274 -9.17299,-5.16895 -8.27583,-10.26578c0.45408,-5.59528 4.9016,-10.09856 9.3765,-13.06559c5.95551,-4.05441 14.09834,-5.56054 20.66143,-2.06369c0.38455,-28.20373 0.16538,-56.41452 0.22364,-84.62144c4.13872,-1.00212 2.80054,4.41654 3.74051,6.92243c0.89693,7.36866 5.83925,13.15059 10.75876,18.31357c6.10345,6.48964 12.58444,13.3706 14.5683,22.36156c2.16629,10.43147 -1.2969,21.10297 -5.79119,30.45157c-0.32545,2.99612 -5.82124,7.33084 -3.20285,1.91666c4.4089,-9.26187 8.05122,-19.92846 5.04187,-30.18453c-2.86578,-10.23363 -11.79822,-18.78025 -22.43167,-20.31272c-0.06872,21.60908 0.16734,43.22224 -0.25201,64.82786c-1.04538,6.36425 -6.57316,11.08648 -12.11653,13.78291c-3.82244,1.66427 -8.13658,2.67123 -12.30093,1.9372l0,-0.00001z" fill="#ffffff"/>
  <path id="svg_39" d="m10.47032,112.13867c-4.75571,-0.80274 -9.17299,-5.16895 -8.27583,-10.26578c0.45408,-5.59528 4.9016,-10.09856 9.3765,-13.06559c5.95551,-4.05441 14.09834,-5.56054 20.66143,-2.06369c0.38455,-28.20373 0.16538,-56.41452 0.22364,-84.62144c4.13872,-1.00212 2.80054,4.41654 3.74051,6.92243c0.89693,7.36866 5.83925,13.15059 10.75876,18.31357c6.10345,6.48964 12.58444,13.3706 14.5683,22.36156c2.16629,10.43147 -1.2969,21.10297 -5.79119,30.45157c-0.32545,2.99612 -5.82124,7.33084 -3.20285,1.91666c4.4089,-9.26187 8.05122,-19.92846 5.04187,-30.18453c-2.86578,-10.23363 -11.79822,-18.78025 -22.43167,-20.31272c-0.06872,21.60908 0.16734,43.22224 -0.25201,64.82786c-1.04538,6.36425 -6.57316,11.08648 -12.11653,13.78291c-3.82244,1.66427 -8.13658,2.67123 -12.30093,1.9372l0,-0.00001z" fill="#ffffff" stroke="#ffffff"/>
  <path stroke="#ffffff" id="svg_40" d="m10.47032,597.13866c-4.75571,-0.80274 -9.17299,-5.16895 -8.27583,-10.26578c0.45408,-5.59528 4.9016,-10.09856 9.3765,-13.06559c5.95551,-4.05441 14.09834,-5.56054 20.66143,-2.06369c0.38455,-28.20373 0.16538,-56.41452 0.22364,-84.62144c4.13872,-1.00212 2.80054,4.41654 3.74051,6.92243c0.89693,7.36866 5.83925,13.15059 10.75876,18.31357c6.10345,6.48964 12.58444,13.3706 14.5683,22.36156c2.16629,10.43147 -1.2969,21.10297 -5.79119,30.45157c-0.32545,2.99612 -5.82124,7.33084 -3.20285,1.91666c4.4089,-9.26187 8.05122,-19.92846 5.04187,-30.18453c-2.86578,-10.23363 -11.79822,-18.78025 -22.43167,-20.31272c-0.06872,21.60908 0.16734,43.22224 -0.25201,64.82786c-1.04538,6.36425 -6.57316,11.08648 -12.11653,13.78291c-3.82244,1.66427 -8.13658,2.67123 -12.30093,1.9372l0,-0.00001z" fill="#ffffff"/>
  <path transform="rotate(4.75719 461.796 320.261)" stroke="#ffffff" fill="none" stroke-width="10" fill-opacity="0" d="m406.65182,158.19549c69,0 110,94.82812 116,129.62743c6,34.79931 21,116.57768 -12,157.46688c-33,40.88919 -118,37.40925 -118.35795,36.61342" id="svg_25"/>
  <path transform="rotate(-3.77621 338.922 319.247)" fill="none" stroke-width="10" fill-opacity="0" d="m392.87301,157.28762c-67.50665,0 -107.6193,94.76588 -113.48945,129.54235c-5.87014,34.77647 -20.5455,116.50117 11.74029,157.36353c32.28579,40.86235 115.44616,37.38471 115.79637,36.58939" id="svg_26" stroke="#ffffff"/>
  <line fill="none" stroke-width="10" fill-opacity="0" x1="421.40005" y1="154.06476" x2="380.72367" y2="154.06476" id="svg_29" stroke="#ffffff"/>
  <path transform="rotate(-5.71339 536.22 310.046)" stroke-width="8" fill="none" stroke="#ffffff" fill-opacity="0" opacity="NaN" d="m528.27752,323.22052c14.70584,20.58818 13.52938,16.47055 16.47055,6.47057c2.94117,-9.99997 -2.94117,-29.41169 -5.88234,-36.47049c-2.94117,-7.05881 -11.76468,-10.58821 -11.97522,-11.07283c0.21054,0.48462 0.79878,36.95512 0.58823,36.47049" id="svg_31"/>
  <path transform="rotate(2.26475 266.938 311.262)" fill="none" stroke-width="8" fill-opacity="0" opacity="NaN" d="m275.19044,324.43712c-15.27878,20.58818 -14.05647,16.47055 -17.11223,6.47057c-3.05576,-9.99997 3.05576,-29.41169 6.11152,-36.47049c3.05576,-7.05881 12.22302,-10.58821 12.44177,-11.07283c-0.21875,0.48462 -0.8299,36.95512 -0.61116,36.47049" id="svg_32" stroke="#ffffff"/>
  <path fill="none" stroke-width="8" fill-opacity="0" opacity="NaN" d="m385.5519,143.1773c5.84113,-11.67382 13.14254,-33.46495 27.74536,-1.55651" id="svg_42" stroke="#ffffff"/>
  <path fill="none" fill-opacity="0" opacity="NaN" d="m471.81381,177.62675c-42.11789,-37.03243 -59.25058,-37.03243 -59.50611,-37.62675" id="svg_45" stroke-width="8" stroke="#ffffff"/>
  <path fill="none" stroke-width="8" fill-opacity="0" opacity="NaN" d="m323.35228,184.54983c44.45037,-42.332 62.53187,-42.332 62.80154,-43.01137" id="svg_49" stroke="#ffffff"/>
  <path stroke="#ffffff" id="svg_2" d="m519.37006,258.73024c97.49112,2.6087 96.79475,48.69565 97.49112,60.86957c0.69637,12.17391 8.35638,57.3913 -91.22383,62.6087" fill-opacity="0" stroke-width="5" fill="none"/>
  <path stroke="#ffffff" id="svg_3" d="m281.10919,258.73024c-94.761,2.60869 -94.08414,48.69565 -94.761,60.86956c-0.67687,12.17392 -8.12237,57.39131 88.66922,62.6087" fill-opacity="0" stroke-width="5" fill="none"/>
 </g>

</svg>